<?xml version="1.0" encoding="utf-8"?>
<!-- Generator: Adobe Illustrator 19.0.0, SVG Export Plug-In . SVG Version: 6.00 Build 0)  -->
<svg version="1.1" id="图层_1" xmlns="http://www.w3.org/2000/svg" xmlns:xlink="http://www.w3.org/1999/xlink" x="0px" y="0px"
	 viewBox="0 0 182.9 50" style="enable-background:new 0 0 182.9 50;" xml:space="preserve">
<style type="text/css">
	.st0{clip-path:url(#SVGID_2_);fill:url(#SVGID_3_);}
	.st1{clip-path:url(#SVGID_5_);fill:url(#SVGID_6_);}
	.st2{clip-path:url(#SVGID_8_);fill:url(#SVGID_9_);}
	.st3{fill:#3C3C3C;}
</style>
<g>
	<g>
		<g>
			<defs>
				<path id="SVGID_1_" d="M54.2,8c-0.1,0.6,0.4,1.2,1.1,1.2c0.8,0,1.8,0.1,2.3,0.7c0.4,0.5,0.5,1.5,0.5,1.5s-0.1,0.9,0.8,1
					c0,0,0,0,0,0c0.7,0.1,1.3-0.5,1.3-1.3c0-0.7-0.2-1.7-0.9-2.5c-0.8-1-2.1-1.5-3.8-1.5c0,0,0,0,0,0C54.8,7,54.3,7.4,54.2,8"/>
			</defs>
			<clipPath id="SVGID_2_">
				<use xlink:href="#SVGID_1_"  style="overflow:visible;"/>
			</clipPath>
			
				<linearGradient id="SVGID_3_" gradientUnits="userSpaceOnUse" x1="-29.9211" y1="693.713" x2="-29.6161" y2="693.713" gradientTransform="matrix(105.2748 106.499 106.499 -105.2748 -70688.0703 76211.1172)">
				<stop  offset="0" style="stop-color:#CE3A62"/>
				<stop  offset="1" style="stop-color:#722158"/>
			</linearGradient>
			<polygon class="st0" points="57.2,4 62.8,9.7 57.1,15.3 51.5,9.6 			"/>
		</g>
		<g>
			<defs>
				<path id="SVGID_4_" d="M25.5,27c0,0,0-3.7,2.7-4.3c5.7-1.3,7.2-6.2,8.9-9c1.6-2.7,4.3-2.4,4.3-2.4c8.8,0,13.8,5.2,13.8,13.9
					c0,8.7-7.1,15.8-15.9,15.8C30.5,40.9,25.5,35.7,25.5,27 M28.8,9.2c-2.9,0-5.3,2.4-5.3,5.3v23.1c0,2.9,2.4,5.3,5.3,5.3h28.5V14.5
					c0-2.9-2.4-5.3-5.3-5.3H28.8z"/>
			</defs>
			<clipPath id="SVGID_5_">
				<use xlink:href="#SVGID_4_"  style="overflow:visible;"/>
			</clipPath>
			
				<linearGradient id="SVGID_6_" gradientUnits="userSpaceOnUse" x1="-29.9211" y1="694.0817" x2="-29.6161" y2="694.0817" gradientTransform="matrix(105.2748 106.499 106.499 -105.2748 -70744.0313 76266.4375)">
				<stop  offset="0" style="stop-color:#CE3A62"/>
				<stop  offset="1" style="stop-color:#722158"/>
			</linearGradient>
			<polygon class="st1" points="40.6,-7.7 74.2,26.3 40.2,59.9 6.6,25.9 			"/>
		</g>
		<g>
			<defs>
				<path id="SVGID_7_" d="M41.2,17.1c-0.3,0.3-0.5,0.7-0.8,1c-0.3,0.4-0.7,0.8-1,1.2c-0.7,0.8-1.4,1.6-2.2,2.3
					c-0.8,0.7-1.6,1.4-2.4,2c-0.4,0.3-0.9,0.6-1.3,0.8c-0.4,0.2-0.8,0.4-1.2,0.5c-0.1,0.1-0.2,0.2-0.2,0.4l0,0
					c0,0.1,0.1,0.1,0.1,0.2c0,0,3,0.8,5.9-0.7c0.6-0.3,1.1-0.7,1.5-1.1c0.4-0.4,0.8-0.9,1.2-1.4c0.3-0.5,0.6-1.1,0.8-1.7
					c0.2-0.6,0.3-1.3,0.3-2c0-0.2,0-0.4,0-0.5c0,0-0.1-0.8-0.2-1.1c0,0-0.1-0.1-0.2-0.1C41.4,16.9,41.3,17,41.2,17.1"/>
			</defs>
			<clipPath id="SVGID_8_">
				<use xlink:href="#SVGID_7_"  style="overflow:visible;"/>
			</clipPath>
			
				<linearGradient id="SVGID_9_" gradientUnits="userSpaceOnUse" x1="-29.9211" y1="694.0671" x2="-29.6161" y2="694.0671" gradientTransform="matrix(105.2748 106.499 106.499 -105.2748 -70742.0313 76264.4531)">
				<stop  offset="0" style="stop-color:#CE3A62"/>
				<stop  offset="1" style="stop-color:#722158"/>
			</linearGradient>
			<polygon class="st2" points="37,12 46.6,21.7 36.9,31.3 27.3,21.6 			"/>
		</g>
	</g>
	<g>
		<path class="st3" d="M84.5,9.6H68.3c-0.8,0-1.5,0.7-1.5,1.5c0,0.8,0.7,1.5,1.5,1.5h16.2c0.8,0,1.5-0.7,1.5-1.5
			C86,10.2,85.4,9.6,84.5,9.6"/>
		<path class="st3" d="M84.5,31.3H68.3c-0.8,0-1.5,0.7-1.5,1.5c0,0.8,0.7,1.5,1.5,1.5h16.2c0.8,0,1.5-0.7,1.5-1.5
			C86,32,85.4,31.3,84.5,31.3"/>
		<path class="st3" d="M84.5,15H68.3c-0.8,0-1.5,0.7-1.5,1.5v6.7c0,0.8,0.7,1.5,1.5,1.5h16.2c0.8,0,1.5-0.7,1.5-1.5v-6.7
			C86,15.7,85.4,15,84.5,15 M83,21.3c0,0.4-0.4,0.8-0.8,0.8H70.6c-0.4,0-0.8-0.4-0.8-0.8v-2.4c0-0.4,0.4-0.8,0.8-0.8h11.6
			c0.4,0,0.8,0.4,0.8,0.8V21.3z"/>
		<path class="st3" d="M69.8,25.8h-0.6c-0.4,0-0.8,0.3-0.8,0.8V29c0,0.4,0.3,0.8,0.8,0.8h2.4c0.4,0,0.8-0.3,0.8-0.8v-0.4
			c0-0.4-0.3-0.8-0.8-0.8c-1.1,0-1.1,0-1.1-1.1v-0.2C70.6,26.2,70.2,25.8,69.8,25.8"/>
		<path class="st3" d="M83.1,25.8h0.6c0.4,0,0.8,0.3,0.8,0.8V29c0,0.4-0.3,0.8-0.8,0.8h-2.4c-0.4,0-0.8-0.3-0.8-0.8v-0.4
			c0-0.4,0.3-0.8,0.8-0.8c1.1,0,1.1,0,1.1-1.1v-0.2C82.3,26.2,82.6,25.8,83.1,25.8"/>
		<path class="st3" d="M109.9,14.3c0.4,0,0.7-0.3,0.7-0.7v-1.7c0-0.4-0.3-0.7-0.7-0.7h-6.8c-0.3,0-0.6-0.3-0.6-0.6v-0.4
			c0-0.4-0.3-0.7-0.7-0.7h-1.7c-0.4,0-0.7,0.3-0.7,0.7v0.4c0,0.3-0.3,0.6-0.6,0.6H92c-0.4,0-0.7,0.3-0.7,0.7v1.7
			c0,0.4,0.3,0.7,0.7,0.7h2c0.6,0,1,0.5,1,1v2.9c0,2.8-0.2,5.6-0.6,8.4l-0.7,7.1c0,0.2,0,0.4,0.2,0.5c0.1,0.1,0.3,0.2,0.5,0.2h1.7
			c0.3,0,0.6-0.3,0.7-0.6l0.7-7.1c0.2-1.6,0.4-3.3,0.5-4.9c0-0.5,0.5-1,1-1h6c0.6,0,1,0.5,1,1v12c0,0.4,0.3,0.7,0.7,0.7h1.7
			c0.4,0,0.7-0.3,0.7-0.7V18.4c0-0.4-0.3-0.7-0.7-0.7h-9.2c-0.6,0-1-0.5-1-1v-1.4c0-0.6,0.5-1,1-1H109.9z"/>
		<path class="st3" d="M144.2,34.4h1.6c0.4,0,0.7-0.3,0.7-0.7V20.3c0-0.3,0.2-0.5,0.5-0.5h1.6c0.4,0,0.7-0.3,0.7-0.7v-1.6
			c0-0.4-0.3-0.7-0.7-0.7H147c-0.3,0-0.5-0.2-0.5-0.5v-2.6c0-0.3,0.2-0.6,0.6-0.7l0.9-0.1c0.3-0.1,0.6-0.4,0.6-0.7v-1.6
			c0-0.2-0.1-0.4-0.3-0.5c-0.2-0.1-0.4-0.2-0.6-0.2l-5.7,0.9c-0.3,0.1-0.6,0.4-0.6,0.7v2.1c0,0.1,0,0.1,0.1,0.2
			c0.1,0,0.1,0.1,0.2,0.1l1.1-0.2c0.2,0,0.3,0,0.5,0.1c0.1,0.1,0.2,0.3,0.2,0.4v2.1c0,0.3-0.2,0.5-0.5,0.5h-1.6
			c-0.4,0-0.7,0.3-0.7,0.7V19c0,0.4,0.3,0.7,0.7,0.7h1.6c0.3,0,0.5,0.2,0.5,0.5v13.4C143.5,34,143.8,34.4,144.2,34.4"/>
		<path class="st3" d="M155,34.4h1.4c0.4,0,0.8-0.4,0.8-0.8v-3.9c0-0.3,0.2-0.5,0.5-0.5h1.1c0.1,0,0.2-0.1,0.2-0.1l0.4-1.9
			c0-0.2,0-0.5-0.2-0.7c-0.2-0.2-0.4-0.3-0.6-0.3h-0.9c-0.3,0-0.5-0.2-0.5-0.5V10.4c0-0.4-0.4-0.8-0.8-0.8H155
			c-0.4,0-0.8,0.4-0.8,0.8v15.3c0,0.3-0.2,0.5-0.5,0.5h-2.5c-0.4,0-0.8,0.4-0.8,0.8v1.4c0,0.4,0.4,0.8,0.8,0.8h2.5
			c0.3,0,0.5,0.2,0.5,0.5v3.9C154.2,34,154.6,34.4,155,34.4"/>
		<path class="st3" d="M142,20.9h-0.7c-0.4,0-0.7,0.3-0.7,0.7v12c0,0.4,0.3,0.7,0.7,0.7h0.7c0.4,0,0.7-0.3,0.7-0.7v-12
			C142.7,21.2,142.4,20.9,142,20.9"/>
		<path class="st3" d="M152.3,13.9c-0.1-0.1-0.3-0.1-0.4-0.1c-0.1,0-0.1,0-0.2,0l-0.5,0.1c-0.4,0.1-0.7,0.5-0.6,1l0.6,2.3
			c0.1,0.4,0.5,0.7,1,0.6l0.5-0.1c0.4-0.1,0.7-0.5,0.6-1l-0.6-2.3C152.6,14.2,152.5,14,152.3,13.9"/>
		<path class="st3" d="M151.2,18.8c-0.2,0.1-0.4,0.2-0.5,0.4c-0.1,0.2-0.1,0.4-0.1,0.6l0.6,2.3c0.1,0.4,0.5,0.7,1,0.6l0.5-0.1
			c0.2-0.1,0.4-0.2,0.5-0.4c0.1-0.2,0.1-0.4,0.1-0.6l-0.6-2.3c-0.1-0.4-0.4-0.6-0.8-0.6c-0.1,0-0.1,0-0.2,0L151.2,18.8z"/>
		<path class="st3" d="M148.6,21H148c-0.4,0-0.7,0.3-0.7,0.7v8.1c0,0.4,0.3,0.7,0.7,0.7h0.7c0.4,0,0.7-0.3,0.7-0.7v-8.1
			C149.4,21.4,149,21,148.6,21"/>
		<path class="st3" d="M123.9,10.9c-0.3,0-0.5,0.2-0.6,0.5l-1,2.8H122v-3.9c0-0.4-0.3-0.7-0.7-0.7h-0.9c-0.4,0-0.7,0.3-0.7,0.7v3.9
			h-0.3l-1-2.8c-0.1-0.3-0.4-0.5-0.6-0.5h-0.8c-0.5,0-0.8,0.5-0.6,1l0.8,2.3h-0.5c-0.4,0-0.7,0.3-0.7,0.7v1.3c0,0.4,0.3,0.7,0.7,0.7
			h3.1v3.9c0,0.4,0.3,0.7,0.7,0.7h0.9c0.4,0,0.7-0.3,0.7-0.7V17h3.1c0.4,0,0.7-0.3,0.7-0.7v-1.3c0-0.4-0.3-0.7-0.7-0.7h-0.5l0.8-2.3
			c0.2-0.5-0.2-1-0.6-1H123.9z"/>
		<path class="st3" d="M122.8,18l0.6,2.3c0,0.2,0.2,0.3,0.4,0.3h1.5c0.2,0,0.4-0.2,0.4-0.5l-0.6-2.3c0-0.2-0.2-0.3-0.4-0.3h-1.5
			C122.9,17.5,122.8,17.7,122.8,18"/>
		<path class="st3" d="M118.4,17.5h-1.5c-0.2,0-0.3,0.1-0.4,0.3l-0.6,2.3c-0.1,0.2,0.1,0.5,0.4,0.5h1.5c0.2,0,0.3-0.1,0.4-0.3
			l0.6-2.3C118.8,17.7,118.7,17.5,118.4,17.5"/>
		<path class="st3" d="M121,32.7l-1.2,1.3c-0.2,0.2-0.5,0.4-0.9,0.4h-2.4c-0.4,0-0.7-0.3-0.7-0.7v-1.5c0-0.4,0.3-0.7,0.7-0.7h2
			l0.8-0.8l-2.7-3.6h0v-2.2c0-0.1-0.1-0.2-0.2-0.2h0c-0.2,0-0.4-0.2-0.4-0.4v-1.4c0-0.2,0.2-0.4,0.4-0.4h0c0.1,0,0.2-0.1,0.2-0.2
			c0-0.2,0.2-0.4,0.4-0.4h1.6c0.2,0,0.4,0.2,0.4,0.4c0,0.1,0.1,0.2,0.2,0.2h6c0.2,0,0.4,0.2,0.4,0.4v1.4c0,0.2-0.2,0.4-0.4,0.4h-6
			c-0.1,0-0.2,0.1-0.2,0.2v1l2.1,2.8l2.1-2.2v-0.7c0-0.4,0.3-0.7,0.6-0.7h1.2c0.3,0,0.6,0.3,0.6,0.7v2.1l-2.9,3.1l0.5,0.6h1.7
			c0.4,0,0.7,0.3,0.7,0.7v1.5c0,0.4-0.3,0.7-0.7,0.7h-2.4c-0.2,0-0.4-0.1-0.5-0.3L121,32.7z"/>
		<path class="st3" d="M132.8,34.4h1.5c0.4,0,0.8-0.4,0.8-0.8v-1.4c0-0.4-0.3-0.8-0.8-0.8h-0.9l-1.5-2l2.5-5.2l0,0v-9.3
			c0.4,0,0.7-0.3,0.7-0.8v-1.3c0-0.4-0.3-0.8-0.7-0.8H130c-0.3,0-0.5-0.3-0.5-0.6l0.2-1.1c0.1-0.4-0.3-0.8-0.7-0.8h-1.4
			c-0.3,0-0.6,0.3-0.7,0.6l-0.3,1.9h0v2.8h5.2v8.5l-1.8,3.7l-1-1.3v-8.5c0-0.4-0.3-0.8-0.8-0.8h-0.9c-0.4,0-0.8,0.4-0.8,0.8V27h0
			l2.2,2.8l-0.7,1.5h-0.6c-0.5,0-0.9,0.4-0.9,0.9v1.2c0,0.5,0.4,0.9,0.9,0.9h1.4c0.4,0,0.7-0.2,0.9-0.6l0.8-1.7l1.5,1.9
			C132.3,34.2,132.5,34.4,132.8,34.4"/>
		<path class="st3" d="M67.4,38.9h1c1.2,0,1.9,0.7,1.9,2c0,1.3-0.7,2-1.9,2h-1.1V38.9z M68.4,42.4c0.9,0,1.3-0.5,1.3-1.5
			c0-1-0.5-1.5-1.3-1.5H68v3H68.4z"/>
		<path class="st3" d="M74.3,40.9c0-1.3,0.7-2.1,1.8-2.1c1,0,1.8,0.8,1.8,2.1c0,1.3-0.7,2.1-1.8,2.1C75,43,74.3,42.2,74.3,40.9
			 M77.1,40.9c0-0.9-0.4-1.5-1.1-1.5c-0.7,0-1.1,0.6-1.1,1.5c0,0.9,0.4,1.6,1.1,1.6C76.7,42.4,77.1,41.8,77.1,40.9"/>
		<path class="st3" d="M81.9,41.2v-2.3h0.6v2.3c0,0.9,0.4,1.2,0.9,1.2c0.5,0,0.9-0.3,0.9-1.2v-2.3h0.6v2.3c0,1.3-0.6,1.8-1.5,1.8
			S81.9,42.5,81.9,41.2"/>
		<polygon class="st3" points="89.2,38.9 91.6,38.9 91.6,39.4 89.9,39.4 89.9,40.7 91.3,40.7 91.3,41.2 89.9,41.2 89.9,42.9 
			89.2,42.9 		"/>
		<path class="st3" d="M97.2,41.8h-1.4l-0.3,1.2h-0.6l1.3-4h0.7l1.3,4h-0.7L97.2,41.8z M97.1,41.3l-0.2-0.5
			c-0.1-0.4-0.3-0.9-0.4-1.3h0c-0.1,0.5-0.2,0.9-0.4,1.3L96,41.3H97.1z"/>
		<path class="st3" d="M102.1,38.9h0.7l1.3,2.4l0.4,0.9h0c0-0.4-0.1-0.9-0.1-1.3v-1.9h0.6v4h-0.7l-1.3-2.4l-0.4-0.8h0
			c0,0.4,0.1,0.9,0.1,1.3v1.9h-0.6V38.9z"/>
		<path class="st3" d="M109.2,40.9c0-1.3,0.8-2.1,1.9-2.1c0.6,0,1,0.3,1.2,0.5l-0.3,0.4c-0.2-0.2-0.4-0.4-0.8-0.4
			c-0.8,0-1.3,0.6-1.3,1.5c0,1,0.4,1.5,1.3,1.5c0.2,0,0.5-0.1,0.6-0.2v-0.9h-0.8v-0.5h1.4v1.8c-0.3,0.3-0.7,0.5-1.3,0.5
			C110,43,109.2,42.2,109.2,40.9"/>
		<path class="st3" d="M125.6,38.9h1c1.2,0,1.9,0.7,1.9,2c0,1.3-0.7,2-1.9,2h-1.1V38.9z M126.6,42.4c0.9,0,1.3-0.5,1.3-1.5
			c0-1-0.5-1.5-1.3-1.5h-0.4v3H126.6z"/>
		<rect x="132.7" y="38.9" class="st3" width="0.6" height="4"/>
		<path class="st3" d="M137.5,40.9c0-1.3,0.8-2.1,1.9-2.1c0.6,0,1,0.3,1.2,0.5l-0.3,0.4c-0.2-0.2-0.4-0.4-0.8-0.4
			c-0.8,0-1.3,0.6-1.3,1.5c0,1,0.4,1.5,1.3,1.5c0.2,0,0.5-0.1,0.6-0.2v-0.9h-0.8v-0.5h1.4v1.8c-0.3,0.3-0.7,0.5-1.3,0.5
			C138.3,43,137.5,42.2,137.5,40.9"/>
		<rect x="144.8" y="38.9" class="st3" width="0.6" height="4"/>
		<polygon class="st3" points="150.6,39.4 149.5,39.4 149.5,38.9 152.5,38.9 152.5,39.4 151.3,39.4 151.3,42.9 150.6,42.9 		"/>
		<path class="st3" d="M156,42.4l0.4-0.4c0.3,0.3,0.7,0.5,1.1,0.5c0.5,0,0.8-0.2,0.8-0.6c0-0.4-0.3-0.5-0.6-0.6L157,41
			c-0.4-0.2-0.8-0.5-0.8-1.1c0-0.6,0.6-1.1,1.3-1.1c0.5,0,0.9,0.2,1.2,0.5l-0.3,0.4c-0.3-0.2-0.5-0.4-0.9-0.4
			c-0.4,0-0.7,0.2-0.7,0.5c0,0.3,0.3,0.5,0.7,0.6l0.6,0.2c0.5,0.2,0.8,0.5,0.8,1.1c0,0.6-0.5,1.2-1.4,1.2
			C156.8,43,156.3,42.8,156,42.4"/>
	</g>
</g>
</svg>
